<svg width="65" height="64" viewBox="0 0 65 64" fill="none" xmlns="http://www.w3.org/2000/svg">
<path d="M52.5606 58.0033C52.6235 58.2527 52.5501 58.4917 52.3509 58.6372L50.7155 59.8842C50.6107 59.9674 50.4744 60.0089 50.2543 59.9985C50.097 59.9777 49.9502 59.8738 49.8559 59.7387L37.3074 41.5221C37.4647 41.387 37.6324 41.2623 37.7897 41.1168L46.1553 33.6555L52.5606 58.0033Z" fill="#002B6B"/>
<path d="M18.0183 45.0654C16.97 46.4995 16.0265 47.8712 15.3032 49.0974L10.2607 46.1462C9.99865 45.9903 9.89384 45.6682 10.0091 45.398L10.7325 43.7249C10.8269 43.5067 11.047 43.3716 11.2776 43.3716C11.3195 43.3716 11.372 43.3716 11.4139 43.382L18.0183 45.0654Z" fill="#002B6B"/>
<path d="M24.4446 57.7122C24.476 58.0032 24.3083 58.2838 24.0357 58.3669L22.285 58.8969C21.9915 58.9905 21.677 58.845 21.5512 58.5748L19.1296 53.3062C20.4295 52.7138 21.9076 51.9344 23.4487 51.0408L24.4446 57.7122Z" fill="#002B6B"/>
<path d="M37.8316 24.5002L29.4765 31.9719C29.3193 32.107 29.1725 32.2628 29.0258 32.3979L12.0534 18.1197C11.9276 18.0158 11.8542 17.8703 11.8437 17.7144C11.8332 17.5481 11.8856 17.3922 12.001 17.2779L13.4372 15.7711C13.542 15.6568 13.6888 15.5945 13.846 15.5945C13.9194 15.5945 14.0033 15.6153 14.0767 15.636L37.8316 24.5002Z" fill="#002B6B"/>
<path d="M31.736 4H30.7948V13.0015H31.736V4Z" fill="#002B6B"/>
<path d="M35.642 4H34.7008V13.0015H35.642V4Z" fill="#002B6B"/>
<path d="M37.6202 4H36.679V13.0015H37.6202V4Z" fill="#002B6B"/>
<path d="M33.9007 4H32.536V13.0015H33.9007V4Z" fill="#002B6B"/>
<path d="M40.254 4H38.8892V13.0015H40.254V4Z" fill="#002B6B"/>
<path d="M41.8069 4H40.8657V13.0015H41.8069V4Z" fill="#002B6B"/>
<path d="M44.3246 4H42.9599V13.0015H44.3246V4Z" fill="#002B6B"/>
<path d="M31.8563 14.0879C31.2167 14.0879 30.7031 14.6075 30.7031 15.231V15.7194C30.7031 16.3429 31.2167 16.8625 31.8563 16.8625C32.4852 16.8625 33.0094 16.3429 33.0094 15.7194V15.231C33.0094 14.6075 32.4852 14.0879 31.8563 14.0879ZM32.2231 15.7194C32.2231 15.9168 32.0554 16.0831 31.8563 16.0831C31.6466 16.0831 31.4893 15.9168 31.4893 15.7194V15.231C31.4893 15.0335 31.6466 14.8673 31.8563 14.8673C32.0554 14.8673 32.2231 15.0335 32.2231 15.231V15.7194Z" fill="#002B6B"/>
<path d="M34.7076 14.0879C34.0682 14.0879 33.5545 14.6075 33.5545 15.231V15.7194C33.5545 16.3429 34.0682 16.8625 34.7076 16.8625C35.3471 16.8625 35.8608 16.3429 35.8608 15.7194V15.231C35.8608 14.6075 35.3471 14.0879 34.7076 14.0879ZM35.0745 15.7194C35.0745 15.9168 34.9068 16.0831 34.7076 16.0831C34.498 16.0831 34.3407 15.9168 34.3407 15.7194V15.231C34.3407 15.0335 34.498 14.8673 34.7076 14.8673C34.9068 14.8673 35.0745 15.0335 35.0745 15.231V15.7194Z" fill="#002B6B"/>
<path d="M37.5591 14.0879C36.9196 14.0879 36.4059 14.6075 36.4059 15.231V15.7194C36.4059 16.3429 36.9196 16.8625 37.5591 16.8625C38.1986 16.8625 38.7123 16.3429 38.7123 15.7194V15.231C38.7123 14.6075 38.1986 14.0879 37.5591 14.0879ZM37.926 15.7194C37.926 15.9168 37.7688 16.0831 37.5591 16.0831C37.36 16.0831 37.1922 15.9168 37.1922 15.7194V15.231C37.1922 15.0335 37.36 14.8673 37.5591 14.8673C37.7688 14.8673 37.926 15.0335 37.926 15.231V15.7194Z" fill="#002B6B"/>
<path d="M40.4105 14.0879C39.7815 14.0879 39.2574 14.6075 39.2574 15.231V15.7194C39.2574 16.3429 39.7815 16.8625 40.4105 16.8625C41.05 16.8625 41.5636 16.3429 41.5636 15.7194V15.231C41.5636 14.6075 41.05 14.0879 40.4105 14.0879ZM40.7774 15.7194C40.7774 15.9168 40.6202 16.0831 40.4105 16.0831C40.2113 16.0831 40.0436 15.9168 40.0436 15.7194V15.231C40.0436 15.0335 40.2113 14.8673 40.4105 14.8673C40.6202 14.8673 40.7774 15.0335 40.7774 15.231V15.7194Z" fill="#002B6B"/>
<path d="M43.262 14.0879C42.633 14.0879 42.1088 14.6075 42.1088 15.231V15.7194C42.1088 16.3429 42.633 16.8625 43.262 16.8625C43.9015 16.8625 44.4256 16.3429 44.4256 15.7194V15.231C44.4256 14.6075 43.9015 14.0879 43.262 14.0879ZM43.6394 15.7194C43.6394 15.9168 43.4716 16.0831 43.262 16.0831C43.0628 16.0831 42.8951 15.9168 42.8951 15.7194V15.231C42.8951 15.0335 43.0628 14.8673 43.262 14.8673C43.4716 14.8673 43.6394 15.0335 43.6394 15.231V15.7194Z" fill="#002B6B"/>
<path d="M55.5588 17.0494L55.5169 17.0079C55.5064 16.987 54.9508 16.3948 53.4727 16.3948C52.2671 16.3948 50.4535 16.7896 47.8222 18.2341C45.7885 19.5226 44.803 20.3748 44.7611 20.406L30.5249 33.1254C29.0048 34.4867 27.5476 35.9624 26.2058 37.5004C19.8844 44.7538 15.9322 50.2822 15.3661 52.6723C15.3452 52.7242 15.3661 52.7762 15.3976 52.8178C15.429 52.8593 15.4815 52.8697 15.5234 52.8697C17.9974 52.558 23.9624 49.243 31.8982 43.7665C33.586 42.6027 35.2108 41.3245 36.7414 39.9632L50.9986 27.2541C51.0091 27.2437 51.9631 26.3708 53.5146 24.438C57.2885 19.0758 55.5798 17.0702 55.5588 17.0494ZM48.556 19.3356C48.4512 19.0551 49.7197 18.4211 51.0301 18.5874L50.2019 19.9591C49.3842 19.637 48.577 19.6058 48.556 19.3356ZM51.3446 20.7385C51.114 20.4683 50.8414 20.2605 50.5478 20.115L51.4179 18.6602C51.9002 18.7849 52.3719 19.0343 52.7703 19.4707C53.1581 19.9071 53.3573 20.3956 53.4412 20.8839L51.8897 21.5906C51.7639 21.2892 51.5961 20.9879 51.3446 20.7385ZM52.4558 23.6378C52.1937 23.5858 52.2461 22.7856 52.005 21.9439L53.4727 21.2684C53.5041 22.5882 52.7283 23.7625 52.4558 23.6378Z" fill="#002B6B"/>
</svg>
