<svg width="61" height="60" viewBox="0 0 61 60" fill="none" xmlns="http://www.w3.org/2000/svg">
<g clip-path="url(#clip0_35_1778)">
<path d="M33.87 13.0455H43.5245L32.0064 1.52734V11.1819C32.0064 12.2092 32.8427 13.0455 33.87 13.0455Z" fill="#002B6B"/>
<path d="M43.5609 45.8183L44.3518 41.8456L39.4518 36.9456L35.4791 37.7365L32.5064 34.7728C31.7064 33.9637 30.4154 33.9637 29.6064 34.7728L27.4427 36.9365L44.37 53.8547L46.5336 51.691C47.3336 50.891 47.3336 49.591 46.5336 48.791L43.5609 45.8183Z" fill="#002B6B"/>
<path d="M41.0064 56.891L24.4064 40.291L26.3154 38.3819L24.87 36.9364L28.3245 33.491C29.0518 32.7546 30.0245 32.3455 31.0609 32.3455C32.0973 32.3455 33.07 32.7546 33.7973 33.5001L36.0791 35.7637L40.0518 34.9728L40.1427 35.0728L41.0882 34.1364C41.9518 33.2728 42.77 32.3364 43.5245 31.3183V14.8637H33.87C31.8427 14.8637 30.1973 13.2183 30.1973 11.191V1.52734H3.57C2.54272 1.52734 1.70636 2.36371 1.70636 3.38189V56.6182C1.70636 57.6364 2.54272 58.4728 3.57 58.4728H41.67C42.6882 58.4728 43.5245 57.6364 43.5245 56.6182V55.5728L42.9245 54.9728L41.0064 56.891ZM14.2336 15.9455H30.9882C31.4882 15.9455 31.8973 16.3546 31.8973 16.8546C31.8973 17.3546 31.4882 17.7637 30.9882 17.7637H14.2336C13.7336 17.7637 13.3245 17.3546 13.3245 16.8546C13.3245 16.3546 13.7336 15.9455 14.2336 15.9455ZM7.77909 21.0728H37.4609C37.9609 21.0728 38.37 21.4819 38.37 21.9819C38.37 22.4819 37.9609 22.891 37.4609 22.891H7.77909C7.27909 22.891 6.87 22.4819 6.87 21.9819C6.87 21.4819 7.27 21.0728 7.77909 21.0728ZM7.77909 26.191H37.4609C37.9609 26.191 38.37 26.6001 38.37 27.1001C38.37 27.6001 37.9609 28.0092 37.4609 28.0092H7.77909C7.27909 28.0092 6.87 27.6001 6.87 27.1001C6.87 26.6001 7.27 26.191 7.77909 26.191ZM19.7518 48.3092C18.8155 50.4183 16.6973 51.8819 14.2427 51.8819C10.9155 51.8819 8.21545 49.191 8.21545 45.8546C8.21545 43.5001 9.56091 41.4546 11.5336 40.4819C12.3518 40.0637 13.2791 39.8273 14.2518 39.8273C17.5791 39.8273 20.2791 42.5273 20.2791 45.8546C20.27 46.7273 20.0791 47.5637 19.7518 48.3092ZM22.6154 33.1364H7.77909C7.27909 33.1364 6.87 32.7273 6.87 32.2273C6.87 31.7273 7.27909 31.3183 7.77909 31.3183H22.6154C23.1154 31.3183 23.5245 31.7273 23.5245 32.2273C23.5245 32.7273 23.1245 33.1364 22.6154 33.1364Z" fill="#002B6B"/>
<path d="M58.6609 23.0273C58.1336 22.4455 57.5154 22 56.8427 21.7C54.8245 20.7818 52.3518 21.1546 50.6882 22.8182C50.1791 23.3273 49.7973 23.9 49.5336 24.5273C47.7882 28.5546 45.4791 32.3091 42.3791 35.4182L41.4427 36.3546L44.9518 39.8636L45.4973 39.3182C48.7609 36.0818 52.6882 33.6273 56.87 31.7273C57.5064 31.4455 58.0882 31.0364 58.5973 30.5C60.5336 28.4273 60.5609 25.1273 58.6609 23.0273Z" fill="#002B6B"/>
<path d="M27.6068 39.6663L26.9833 40.2898L41.016 54.3225L41.6395 53.699L27.6068 39.6663Z" fill="#002B6B"/>
</g>
<defs>
<clipPath id="clip0_35_1778">
<rect width="60" height="60" fill="white" transform="translate(0.888184)"/>
</clipPath>
</defs>
</svg>
