<svg width="65" height="64" viewBox="0 0 65 64" fill="none" xmlns="http://www.w3.org/2000/svg">
<path d="M12.6588 61.8667H21.1921V32.3887L12.6588 35.0832V61.8667ZM14.7921 45.8667C14.7921 45.5838 14.9045 45.3125 15.1045 45.1124C15.3045 44.9124 15.5759 44.8 15.8588 44.8C16.1417 44.8 16.413 44.9124 16.613 45.1124C16.813 45.3125 16.9254 45.5838 16.9254 45.8667V49.0667C16.9254 49.3496 16.813 49.6209 16.613 49.8209C16.413 50.021 16.1417 50.1333 15.8588 50.1333C15.5759 50.1333 15.3045 50.021 15.1045 49.8209C14.9045 49.6209 14.7921 49.3496 14.7921 49.0667V45.8667Z" fill="#FD6B10"/>
<path d="M62.7768 38.2466C62.7571 38.1045 62.7087 37.9679 62.6345 37.8451C62.5603 37.7223 62.4619 37.6158 62.3452 37.5323L34.1991 17.4274C34.7153 17.092 35.1521 16.648 35.4791 16.1264C35.806 15.6049 36.0153 15.0183 36.0922 14.4075C36.1692 13.7968 36.112 13.1766 35.9247 12.5902C35.7374 12.0038 35.4244 11.4654 35.0076 11.0124L37.1671 1.29792C37.2017 1.14198 37.2008 0.98027 37.1645 0.824721C37.1282 0.669173 37.0575 0.523752 36.9575 0.399185C36.8575 0.274618 36.7309 0.174083 36.5869 0.104994C36.4428 0.0359047 36.2852 2.46658e-05 36.1254 0L27.5921 0C27.4324 2.46658e-05 27.2747 0.0359047 27.1307 0.104994C26.9867 0.174083 26.86 0.274618 26.7601 0.399185C26.6601 0.523752 26.5894 0.669173 26.5531 0.824721C26.5168 0.98027 26.5159 1.14198 26.5504 1.29792L28.71 11.0124C28.2883 11.47 27.973 12.0152 27.7865 12.6088C27.5999 13.2025 27.5468 13.83 27.6309 14.4466C27.715 15.0631 27.9342 15.6535 28.2729 16.1756C28.6116 16.6976 29.0614 17.1384 29.5902 17.4664L3.47545 37.5541C3.30397 37.6923 3.18079 37.8814 3.12363 38.094L3.05878 38.1146V60.8C3.05878 61.0829 3.17116 61.3542 3.3712 61.5542C3.57124 61.7543 3.84255 61.8667 4.12544 61.8667H10.5254V35.7568L8.46542 36.4073L28.9184 20.674L23.4326 31.9678C23.3621 32.113 23.3254 32.2724 23.3254 32.4338V61.8667H61.7254C62.0083 61.8667 62.2797 61.7543 62.4797 61.5542C62.6797 61.3542 62.7921 61.0829 62.7921 60.8V38.249L62.7768 38.2466ZM8.39211 50.1333C8.39211 50.4162 8.27973 50.6875 8.07969 50.8876C7.87965 51.0876 7.60834 51.2 7.32544 51.2C7.04255 51.2 6.77124 51.0876 6.5712 50.8876C6.37116 50.6875 6.25878 50.4162 6.25878 50.1333V46.9333C6.25878 46.6504 6.37116 46.3791 6.5712 46.1791C6.77124 45.979 7.04255 45.8667 7.32544 45.8667C7.60834 45.8667 7.87965 45.979 8.07969 46.1791C8.27973 46.3791 8.39211 46.6504 8.39211 46.9333V50.1333ZM38.1277 22.8553L58.8248 37.6385L49.3494 36.1807L38.1277 22.8553ZM46.1452 35.6878L25.532 32.5163L32.1005 19.0092L46.1452 35.6878ZM31.8588 11.7333C32.2807 11.7333 32.6932 11.8585 33.044 12.0929C33.3948 12.3273 33.6683 12.6605 33.8297 13.0503C33.9912 13.4401 34.0334 13.869 33.9511 14.2829C33.8688 14.6967 33.6656 15.0768 33.3673 15.3752C33.0689 15.6735 32.6888 15.8767 32.275 15.959C31.8611 16.0413 31.4322 15.9991 31.0424 15.8376C30.6526 15.6761 30.3194 15.4027 30.085 15.0519C29.8506 14.7011 29.7254 14.2886 29.7254 13.8667C29.7261 13.3011 29.9511 12.7588 30.351 12.3589C30.7509 11.9589 31.2932 11.734 31.8588 11.7333ZM30.7921 58.6667C30.7921 58.9496 30.6797 59.2209 30.4797 59.4209C30.2797 59.6209 30.0083 59.7333 29.7254 59.7333C29.4425 59.7333 29.1712 59.6209 28.9712 59.4209C28.7712 59.2209 28.6588 58.9496 28.6588 58.6667V36.2667C28.6588 35.9838 28.7712 35.7125 28.9712 35.5124C29.1712 35.3124 29.4425 35.2 29.7254 35.2C30.0083 35.2 30.2797 35.3124 30.4797 35.5124C30.6797 35.7125 30.7921 35.9838 30.7921 36.2667V58.6667ZM36.1254 58.6667C36.1254 58.9496 36.0131 59.2209 35.813 59.4209C35.613 59.6209 35.3417 59.7333 35.0588 59.7333C34.7759 59.7333 34.5046 59.6209 34.3045 59.4209C34.1045 59.2209 33.9921 58.9496 33.9921 58.6667V37.3333C33.9921 37.0504 34.1045 36.7791 34.3045 36.5791C34.5046 36.379 34.7759 36.2667 35.0588 36.2667C35.3417 36.2667 35.613 36.379 35.813 36.5791C36.0131 36.7791 36.1254 37.0504 36.1254 37.3333V58.6667ZM41.4588 58.6667C41.4588 58.9496 41.3464 59.2209 41.1464 59.4209C40.9463 59.6209 40.675 59.7333 40.3921 59.7333C40.1092 59.7333 39.8379 59.6209 39.6379 59.4209C39.4378 59.2209 39.3254 58.9496 39.3254 58.6667V38.4C39.3254 38.1171 39.4378 37.8458 39.6379 37.6457C39.8379 37.4457 40.1092 37.3333 40.3921 37.3333C40.675 37.3333 40.9463 37.4457 41.1464 37.6457C41.3464 37.8458 41.4588 38.1171 41.4588 38.4V58.6667ZM46.7921 58.6667C46.7921 58.9496 46.6797 59.2209 46.4797 59.4209C46.2797 59.6209 46.0083 59.7333 45.7254 59.7333C45.4425 59.7333 45.1712 59.6209 44.9712 59.4209C44.7712 59.2209 44.6588 58.9496 44.6588 58.6667V39.4667C44.6588 39.1838 44.7712 38.9125 44.9712 38.7124C45.1712 38.5124 45.4425 38.4 45.7254 38.4C46.0083 38.4 46.2797 38.5124 46.4797 38.7124C46.6797 38.9125 46.7921 39.1838 46.7921 39.4667V58.6667ZM52.1254 58.6667C52.1254 58.9496 52.0131 59.2209 51.813 59.4209C51.613 59.6209 51.3417 59.7333 51.0588 59.7333C50.7759 59.7333 50.5046 59.6209 50.3045 59.4209C50.1045 59.2209 49.9921 58.9496 49.9921 58.6667V40.5333C49.9921 40.2504 50.1045 39.9791 50.3045 39.7791C50.5046 39.579 50.7759 39.4667 51.0588 39.4667C51.3417 39.4667 51.613 39.579 51.813 39.7791C52.0131 39.9791 52.1254 40.2504 52.1254 40.5333V58.6667ZM57.4588 58.6667C57.4588 58.9496 57.3464 59.2209 57.1464 59.4209C56.9463 59.6209 56.675 59.7333 56.3921 59.7333C56.1092 59.7333 55.8379 59.6209 55.6379 59.4209C55.4378 59.2209 55.3254 58.9496 55.3254 58.6667V41.6C55.3254 41.3171 55.4378 41.0458 55.6379 40.8457C55.8379 40.6457 56.1092 40.5333 56.3921 40.5333C56.675 40.5333 56.9463 40.6457 57.1464 40.8457C57.3464 41.0458 57.4588 41.3171 57.4588 41.6V58.6667Z" fill="#FD6B10"/>
</svg>
