<svg width="40" height="40" viewBox="0 0 40 40" fill="none" xmlns="http://www.w3.org/2000/svg">
<path d="M37.5917 0.0121936L33.8413 2.81942L30.0697 11.613H27.0368L25.8459 9.03231H26.624C28.0472 9.03231 29.2047 7.8872 29.2047 6.46394V3.87091H30.495V0H26.624V3.87091H27.9143V6.46394C27.9143 7.17496 27.3357 7.74196 26.624 7.74196H25.2504L23.6013 4.17426L25.5768 3.1897L19.1084 0.419323L17.5877 5.74127C17.5464 2.57487 14.9612 0.0116516 11.7851 0.0116516C8.5832 0.0116516 5.97866 2.61619 5.97866 5.81809C5.97866 7.75293 6.95861 9.56774 8.55936 10.6406V11.6129H6.99682L6.89616 12.1419C6.58265 13.7684 6.55352 15.44 6.80972 17.1071L2.40839 24.9523L7.26901 26.0626V34.1936H13.7206V40H29.2045V31.0097C33.7206 27.8148 36.3 22.6781 36.2962 17.1981L36.2975 14.8446C36.2975 13.9574 36.2156 13.0459 36.0504 12.1478L35.9549 11.6129H34.6884L37.5917 4.65739V0.0121936ZM27.9142 2.59289V1.30254H29.2045V2.59289H27.9142ZM25.6156 11.6129H23.1685L21.9956 9.03217H24.4247L25.6156 11.6129ZM19.9458 2.18387L22.5104 3.28264L21.9052 3.57935L23.8291 7.74196H21.4091L19.8368 4.29105L19.2593 4.58261L19.9458 2.18387ZM21.751 11.613H18.882V10.335C18.882 9.62342 19.4607 9.03244 20.1724 9.03244H20.5781L21.751 11.613ZM19.2175 6.04963L20 7.77163C18.6581 7.862 17.5917 8.97039 17.5917 10.3348V11.6129H15.011V10.6406C16.302 9.77544 17.178 8.4252 17.4735 6.92133L19.2175 6.04963ZM7.26914 5.81876C7.26914 3.32911 9.29558 1.30268 11.7852 1.30268C14.2749 1.30268 16.3013 3.32911 16.3013 5.81876C16.3013 7.4214 15.4356 8.91877 14.0427 9.72585L13.7208 9.9116V11.6129H12.4304V7.63479C13.1795 7.36775 13.7208 6.65795 13.7208 5.81795C13.7208 4.75088 12.8523 3.88243 11.7852 3.88243C10.7182 3.88243 9.8497 4.75101 9.8497 5.81809C9.8497 6.65809 10.391 7.36775 11.1401 7.63492V11.613H9.8497V9.9116L9.52779 9.72517C8.13488 8.91809 7.26914 7.42127 7.26914 5.81876ZM11.7852 6.46394C11.429 6.46394 11.1401 6.17414 11.1401 5.81876C11.1401 5.46258 11.429 5.17359 11.7852 5.17359C12.1414 5.17359 12.4304 5.46258 12.4304 5.81876C12.4304 6.17495 12.1414 6.46394 11.7852 6.46394ZM34.869 12.9034C34.9626 13.5484 35.0097 14.2026 35.0097 14.8387L35.0111 17.1968C35.015 22.3653 32.4647 27.2052 28.1982 30.1426L27.9143 30.3362V38.7098H15.0111V32.9034H8.55936V25.0336L4.37805 24.0794L8.1548 17.3459L8.11808 17.1155C7.87814 15.7039 7.86459 14.1936 8.07297 12.9034H8.55936H15.011H34.869ZM33.2903 11.6129H31.4729L34.6891 4.11478L36.1194 4.82702L33.2903 11.6129ZM36.3013 3.48383L35.5877 3.1271L36.3013 2.59289V3.48383Z" fill="#FADCDA" fill-opacity="0.7"/>
<path d="M13.0756 16.7741C12.0085 16.7741 11.1401 16.129 11.1401 14.8386H9.84973C9.84973 16.7741 11.2968 18.0645 13.0756 18.0645C14.8544 18.0645 16.3015 16.7741 16.3015 14.8386H15.0111C15.011 16.129 14.1427 16.7741 13.0756 16.7741Z" fill="#FADCDA" fill-opacity="0.7"/>
</svg>
