<svg width="40" height="40" viewBox="0 0 40 40" fill="none" xmlns="http://www.w3.org/2000/svg">
<path d="M12.5 3.75H13.75V5H12.5V3.75Z" fill="#FADCDA" fill-opacity="0.7"/>
<path d="M15 3.75H20V5H15V3.75Z" fill="#FADCDA" fill-opacity="0.7"/>
<path d="M18.75 26.25H16.25C15.7527 26.25 15.2758 26.4475 14.9242 26.7992C14.5725 27.1508 14.375 27.6277 14.375 28.125C14.375 28.6223 14.5725 29.0992 14.9242 29.4508C15.2758 29.8025 15.7527 30 16.25 30H18.75C19.2473 30 19.7242 29.8025 20.0758 29.4508C20.4275 29.0992 20.625 28.6223 20.625 28.125C20.625 27.6277 20.4275 27.1508 20.0758 26.7992C19.7242 26.4475 19.2473 26.25 18.75 26.25ZM18.75 28.75H16.25C16.0842 28.75 15.9253 28.6842 15.8081 28.5669C15.6908 28.4497 15.625 28.2908 15.625 28.125C15.625 27.9592 15.6908 27.8003 15.8081 27.6831C15.9253 27.5658 16.0842 27.5 16.25 27.5H18.75C18.9158 27.5 19.0747 27.5658 19.1919 27.6831C19.3092 27.8003 19.375 27.9592 19.375 28.125C19.375 28.2908 19.3092 28.4497 19.1919 28.5669C19.0747 28.6842 18.9158 28.75 18.75 28.75Z" fill="#FADCDA" fill-opacity="0.7"/>
<path d="M2.49998 17.5001H3.74998V10.2589L4.55811 11.067L5.44186 10.1832L3.56686 8.30824C3.44965 8.19107 3.29071 8.12524 3.12498 8.12524C2.95925 8.12524 2.80031 8.19107 2.68311 8.30824L0.808105 10.1832L1.69186 11.067L2.49998 10.2589V17.5001Z" fill="#FADCDA" fill-opacity="0.7"/>
<path d="M31.25 10.2589V17.5001H32.5V10.2589L33.3081 11.067L34.1919 10.1832L32.3169 8.30824C32.1997 8.19107 32.0407 8.12524 31.875 8.12524C31.7093 8.12524 31.5503 8.19107 31.4331 8.30824L29.5581 10.1832L30.4419 11.067L31.25 10.2589Z" fill="#FADCDA" fill-opacity="0.7"/>
<path d="M35 28.75C34.4116 28.7476 33.8418 28.956 33.3937 29.3375C33.1709 28.968 32.8565 28.6623 32.481 28.4499C32.1054 28.2375 31.6815 28.1256 31.25 28.125C30.6616 28.1226 30.0918 28.331 29.6437 28.7125C29.3062 28.1502 28.7605 27.7437 28.125 27.5813V5.625C28.1237 4.46508 27.6623 3.35305 26.8421 2.53287C26.0219 1.71268 24.9099 1.25132 23.75 1.25H11.25C10.0901 1.25132 8.97805 1.71268 8.15787 2.53287C7.33768 3.35305 6.87632 4.46508 6.875 5.625V17.0625C6.47769 17.2483 6.15733 17.5665 5.96875 17.9625L3.13125 24.1187C2.71733 25.0208 2.50206 26.0013 2.5 26.9937V38.75H3.75V26.9937C3.75211 26.1822 3.92904 25.3807 4.26875 24.6437L6.875 18.9875V28.125C6.87586 28.6349 6.96685 29.1406 7.14375 29.6187L6.525 30.6875L7.60625 31.3125L11.3562 24.8187C11.4375 24.6759 11.5461 24.5505 11.6759 24.4497C11.8056 24.3489 11.954 24.2747 12.1125 24.2313C12.4335 24.1491 12.7737 24.1939 13.0625 24.3563C13.3496 24.5233 13.5588 24.7973 13.6443 25.1183C13.7298 25.4392 13.6847 25.781 13.5187 26.0687L10.7062 30.9375C10.6519 31.0352 10.6239 31.1453 10.625 31.2571C10.6261 31.3688 10.6563 31.4784 10.7125 31.575L12.05 33.8C12.3431 34.2846 12.4987 34.8399 12.5 35.4062V38.7438H13.75V35.4062C13.7486 34.6136 13.5326 33.8361 13.125 33.1562L12.7313 32.5H16.5875C16.4174 33.1415 16.5073 33.8243 16.8375 34.4L19.5312 39.0625L20.6125 38.4375L17.9187 33.775C17.7935 33.5608 17.7348 33.3141 17.7501 33.0665C17.7655 32.8188 17.8543 32.5813 18.0051 32.3842C18.1559 32.1871 18.362 32.0394 18.597 31.9599C18.8321 31.8803 19.0855 31.8725 19.325 31.9375C19.4843 31.979 19.6335 32.0525 19.7635 32.1535C19.8935 32.2545 20.0016 32.3809 20.0813 32.525L21.3313 34.6875C21.4015 34.8061 21.5083 34.8988 21.6355 34.9518C21.7628 35.0047 21.9038 35.0151 22.0375 34.9813C22.1707 34.9454 22.2883 34.8665 22.3719 34.7568C22.4556 34.6472 22.5006 34.5129 22.5 34.375V22.5C22.5 22.1685 22.6317 21.8505 22.8661 21.6161C23.1005 21.3817 23.4185 21.25 23.75 21.25C24.0815 21.25 24.3995 21.3817 24.6339 21.6161C24.8683 21.8505 25 22.1685 25 22.5V32.5C25 32.6658 25.0658 32.8247 25.1831 32.9419C25.3003 33.0592 25.4592 33.125 25.625 33.125C25.7908 33.125 25.9497 33.0592 26.0669 32.9419C26.1842 32.8247 26.25 32.6658 26.25 32.5V30C26.25 29.6685 26.3817 29.3505 26.6161 29.1161C26.8505 28.8817 27.1685 28.75 27.5 28.75C27.8315 28.75 28.1495 28.8817 28.3839 29.1161C28.6183 29.3505 28.75 29.6685 28.75 30V32.5C28.75 32.6658 28.8158 32.8247 28.9331 32.9419C29.0503 33.0592 29.2092 33.125 29.375 33.125C29.5408 33.125 29.6997 33.0592 29.8169 32.9419C29.9342 32.8247 30 32.6658 30 32.5V30.625C30 30.2935 30.1317 29.9755 30.3661 29.7411C30.6005 29.5067 30.9185 29.375 31.25 29.375C31.5815 29.375 31.8995 29.5067 32.1339 29.7411C32.3683 29.9755 32.5 30.2935 32.5 30.625V32.5C32.5 32.6658 32.5658 32.8247 32.6831 32.9419C32.8003 33.0592 32.9592 33.125 33.125 33.125C33.2908 33.125 33.4497 33.0592 33.5669 32.9419C33.6842 32.8247 33.75 32.6658 33.75 32.5V31.25C33.75 30.9185 33.8817 30.6005 34.1161 30.3661C34.3505 30.1317 34.6685 30 35 30C35.3315 30 35.6495 30.1317 35.8839 30.3661C36.1183 30.6005 36.25 30.9185 36.25 31.25V38.75H37.5V31.25C37.5 30.587 37.2366 29.9511 36.7678 29.4822C36.2989 29.0134 35.663 28.75 35 28.75ZM26.875 27.5813C26.656 27.6378 26.4457 27.724 26.25 27.8375V22.5C26.25 21.837 25.9866 21.2011 25.5178 20.7322C25.0489 20.2634 24.413 20 23.75 20C23.087 20 22.4511 20.2634 21.9822 20.7322C21.5134 21.2011 21.25 21.837 21.25 22.5V31.25H20.6188C20.3373 31.0088 20.0068 30.8318 19.65 30.7312C19.0084 30.5615 18.3258 30.6513 17.75 30.9813C17.6196 31.0601 17.4962 31.15 17.3812 31.25H11.9812L11.975 31.2438L14.6063 26.6937C14.9378 26.1194 15.0275 25.4369 14.8558 24.7963C14.6841 24.1558 14.265 23.6096 13.6906 23.2781C13.1163 22.9466 12.4337 22.8568 11.7932 23.0285C11.1526 23.2003 10.6065 23.6194 10.275 24.1937L8.125 27.9125V5.625C8.125 4.7962 8.45424 4.00134 9.04029 3.41529C9.62634 2.82924 10.4212 2.5 11.25 2.5H23.75C24.5788 2.5 25.3737 2.82924 25.9597 3.41529C26.5458 4.00134 26.875 4.7962 26.875 5.625V27.5813Z" fill="#FADCDA" fill-opacity="0.7"/>
<path d="M16.875 13.125H18.125C18.2908 13.125 18.4497 13.1908 18.5669 13.3081C18.6842 13.4253 18.75 13.5842 18.75 13.75H20C20 13.2527 19.8025 12.7758 19.4508 12.4242C19.0992 12.0725 18.6223 11.875 18.125 11.875V11.25H16.875V11.875C16.3777 11.875 15.9008 12.0725 15.5492 12.4242C15.1975 12.7758 15 13.2527 15 13.75C15 14.2473 15.1975 14.7242 15.5492 15.0758C15.9008 15.4275 16.3777 15.625 16.875 15.625H18.125C18.2908 15.625 18.4497 15.6908 18.5669 15.8081C18.6842 15.9253 18.75 16.0842 18.75 16.25C18.75 16.4158 18.6842 16.5747 18.5669 16.6919C18.4497 16.8092 18.2908 16.875 18.125 16.875H16.875C16.7092 16.875 16.5503 16.8092 16.4331 16.6919C16.3158 16.5747 16.25 16.4158 16.25 16.25H15C15 16.7473 15.1975 17.2242 15.5492 17.5758C15.9008 17.9275 16.3777 18.125 16.875 18.125V18.75H18.125V18.125C18.6223 18.125 19.0992 17.9275 19.4508 17.5758C19.8025 17.2242 20 16.7473 20 16.25C20 15.7527 19.8025 15.2758 19.4508 14.9242C19.0992 14.5725 18.6223 14.375 18.125 14.375H16.875C16.7092 14.375 16.5503 14.3092 16.4331 14.1919C16.3158 14.0747 16.25 13.9158 16.25 13.75C16.25 13.5842 16.3158 13.4253 16.4331 13.3081C16.5503 13.1908 16.7092 13.125 16.875 13.125Z" fill="#FADCDA" fill-opacity="0.7"/>
<path d="M17.5 8.75C16.2639 8.75 15.0555 9.11656 14.0277 9.80331C12.9999 10.4901 12.1988 11.4662 11.7258 12.6082C11.2527 13.7503 11.1289 15.0069 11.3701 16.2193C11.6113 17.4317 12.2065 18.5453 13.0806 19.4194C13.9547 20.2935 15.0683 20.8888 16.2807 21.1299C17.4931 21.3711 18.7497 21.2473 19.8918 20.7742C21.0338 20.3012 22.0099 19.5001 22.6967 18.4723C23.3834 17.4445 23.75 16.2361 23.75 15C23.7482 13.343 23.0891 11.7543 21.9174 10.5826C20.7457 9.41088 19.157 8.75182 17.5 8.75ZM17.5 20C16.5111 20 15.5444 19.7068 14.7222 19.1573C13.8999 18.6079 13.259 17.827 12.8806 16.9134C12.5022 15.9998 12.4032 14.9945 12.5961 14.0245C12.789 13.0546 13.2652 12.1637 13.9645 11.4645C14.6637 10.7652 15.5546 10.289 16.5246 10.0961C17.4945 9.90315 18.4998 10.0022 19.4134 10.3806C20.3271 10.759 21.1079 11.3999 21.6574 12.2221C22.2068 13.0444 22.5 14.0111 22.5 15C22.4985 16.3256 21.9713 17.5965 21.0339 18.5339C20.0965 19.4712 18.8256 19.9985 17.5 20Z" fill="#FADCDA" fill-opacity="0.7"/>
<path d="M31.25 18.75H32.5V20H31.25V18.75Z" fill="#FADCDA" fill-opacity="0.7"/>
<path d="M31.25 21.25H32.5V22.5H31.25V21.25Z" fill="#FADCDA" fill-opacity="0.7"/>
<path d="M2.5 18.75H3.75V20H2.5V18.75Z" fill="#FADCDA" fill-opacity="0.7"/>
</svg>
