<svg width="40" height="40" viewBox="0 0 40 40" fill="none" xmlns="http://www.w3.org/2000/svg">
<g clip-path="url(#clip0_36_2123)">
<path d="M21.1516 25.6363C21.0304 25.6363 20.9092 25.5757 20.7879 25.5151C20.5455 25.3333 20.2425 25.2727 20.0001 25.2727C19.697 25.2727 19.394 25.3333 19.1516 25.5151C18.9698 25.6363 18.7273 25.6363 18.5455 25.5151C18.3031 25.4545 18.1819 25.2727 18.1819 25.0303V22.2424C18.1819 22.0606 18.2425 21.8787 18.4243 21.7575C18.5455 21.6363 18.7273 21.5757 18.9092 21.6363C19.2122 21.6969 19.6364 21.6969 19.9395 21.6969C20.3637 21.6969 20.6667 21.6969 20.9698 21.6363C21.1516 21.6363 21.3334 21.6363 21.4546 21.7575C21.5758 21.8787 21.697 22.0606 21.697 22.1818L21.7576 24.9697C21.7576 25.2121 21.6364 25.3939 21.4546 25.5151C21.3334 25.6363 21.2728 25.6363 21.1516 25.6363ZM19.394 22.9091V24.1212C19.7576 24.0606 20.1819 24.0606 20.5455 24.1212V22.9091C20.1819 22.9091 19.8182 22.9091 19.394 22.9091Z" fill="#FADCDA" fill-opacity="0.7"/>
<path d="M20 39.3938C19.2728 39.3938 18.5455 39.0908 18 38.5454C17.5152 38.0605 17.2122 37.3332 17.2122 36.606V26.909C17.2122 25.9999 17.697 25.1514 18.4243 24.606C19.394 23.9393 20.7273 23.9999 21.5152 24.606C21.5152 24.606 21.5758 24.606 21.5758 24.6666C21.5758 24.6666 21.6364 24.7272 21.697 24.7272C21.8182 24.7878 21.9394 24.8484 22 24.9696C22.4849 25.4544 22.7879 26.1817 22.7879 26.909V36.606C22.7879 38.1211 21.5152 39.3938 20 39.3938ZM20 25.3332C19.697 25.3332 19.394 25.3938 19.1516 25.5757C18.7273 25.8787 18.4243 26.3635 18.4243 26.909V36.606C18.4243 37.0302 18.6061 37.3938 18.8485 37.6969C19.1516 37.9999 19.5758 38.1817 20 38.1817C20.9091 38.1817 21.5758 37.5151 21.5758 36.606V26.909C21.5758 26.4848 21.394 26.0605 21.1516 25.8181C21.1516 25.8181 21.0909 25.7575 21.0303 25.7575C20.9697 25.6969 20.8485 25.6363 20.7273 25.5757C20.5455 25.3938 20.3031 25.3332 20 25.3332Z" fill="#FADCDA" fill-opacity="0.7"/>
<path d="M24 15.6364H15.9394C15.5758 15.6364 15.3334 15.3939 15.3334 15.0303V8.60606C15.3334 8.24242 15.5758 8 15.9394 8H18.5455C18.6667 8 18.7879 8.06061 18.8485 8.12121L20.3031 9.0303H24C24.3637 9.0303 24.6061 9.27273 24.6061 9.63636V15.0303C24.6061 15.3939 24.3637 15.6364 24 15.6364ZM16.5455 14.4242H23.394V10.2424H20.1213C20 10.2424 19.8788 10.1818 19.8182 10.1212L18.3637 9.21212H16.5455V14.4242Z" fill="#FADCDA" fill-opacity="0.7"/>
<path d="M19.9394 20.3636C15.2121 20.3636 11.3939 16.5454 11.3939 11.8182C11.3939 7.09089 15.2121 3.27271 19.9394 3.27271C24.6666 3.27271 28.4848 7.09089 28.4848 11.8182C28.4848 16.5454 24.6666 20.3636 19.9394 20.3636ZM19.9394 4.48483C15.8788 4.48483 12.606 7.75755 12.606 11.8182C12.606 15.8788 15.8788 19.1515 19.9394 19.1515C24 19.1515 27.2727 15.8788 27.2727 11.8182C27.2727 7.75755 24 4.48483 19.9394 4.48483Z" fill="#FADCDA" fill-opacity="0.7"/>
<path d="M19.9394 23.0302C13.7576 23.0302 8.72729 17.9999 8.72729 11.8181C8.72729 5.63626 13.7576 0.605957 19.9394 0.605957C26.1212 0.605957 31.1515 5.63626 31.1515 11.8181C31.1515 17.9999 26.1212 23.0302 19.9394 23.0302ZM19.9394 1.81808C14.4243 1.81808 9.93942 6.30293 9.93942 11.8181C9.93942 17.3332 14.4243 21.8181 19.9394 21.8181C25.4546 21.8181 29.9394 17.3332 29.9394 11.8181C29.9394 6.30293 25.4546 1.81808 19.9394 1.81808Z" fill="#FADCDA" fill-opacity="0.7"/>
<path d="M22 12.9697H18C17.6363 12.9697 17.3939 12.7273 17.3939 12.3636C17.3939 12 17.6363 11.7576 18 11.7576H22C22.3636 11.7576 22.606 12 22.606 12.3636C22.606 12.7273 22.3636 12.9697 22 12.9697Z" fill="#FADCDA" fill-opacity="0.7"/>
<path d="M31.5758 24.6665C31.394 24.6665 31.2122 24.5453 31.091 24.4241L29.0304 21.4544C28.8486 21.1514 28.9092 20.7878 29.2122 20.6059C29.5152 20.4241 29.8789 20.4847 30.0607 20.7878L32.1213 23.7575C32.3031 24.0605 32.2425 24.4241 31.9395 24.6059C31.8183 24.6059 31.697 24.6665 31.5758 24.6665Z" fill="#FADCDA" fill-opacity="0.7"/>
<path d="M33.0304 29.3938C32.788 29.3938 32.5456 29.3938 32.2425 29.2726C31.4547 29.0908 30.7274 28.6059 30.3032 27.8786C29.8789 27.1514 29.6971 26.3029 29.9395 25.4544C30.1213 24.6059 30.6668 23.9392 31.3941 23.4544C32.1213 23.0302 32.9698 22.8483 33.8183 23.0908C34.6668 23.2726 35.3335 23.818 35.8183 24.5453C36.2425 25.2726 36.4244 26.1211 36.1819 26.9695C35.9395 27.818 35.4547 28.4847 34.7274 28.9695C34.1819 29.212 33.6365 29.3938 33.0304 29.3938ZM32.0001 24.4847C31.5153 24.7877 31.2122 25.212 31.091 25.6968C30.9698 26.1817 31.0304 26.7271 31.3335 27.212C31.6365 27.6968 32.0607 27.9999 32.5456 28.1211C33.091 28.2423 33.5759 28.1817 34.0607 27.8786C34.5456 27.5756 34.8486 27.1514 34.9698 26.6665C35.091 26.1211 35.0304 25.6362 34.7274 25.1514C34.4244 24.6665 34.0001 24.3635 33.5153 24.2423C32.9698 24.1211 32.4244 24.1817 32.0001 24.4847Z" fill="#FADCDA" fill-opacity="0.7"/>
<path d="M32 6.84837C31.8181 6.84837 31.5757 6.72715 31.5151 6.54534C31.3333 6.24231 31.3939 5.87867 31.6969 5.69685L33.0303 4.84837C33.3333 4.66655 33.6969 4.72715 33.8788 5.03018C34.0606 5.33322 34 5.69685 33.6969 5.87867L32.3636 6.72715C32.2424 6.78776 32.1212 6.84837 32 6.84837Z" fill="#FADCDA" fill-opacity="0.7"/>
<path d="M35.5757 7.27264C34.2424 7.27264 32.9697 6.42416 32.4848 5.03022C32.2424 4.24234 32.303 3.33325 32.6666 2.60598C33.0303 1.8181 33.6969 1.27264 34.5454 1.03022C35.3333 0.787796 36.2424 0.848402 36.9697 1.21204C37.7575 1.57567 38.303 2.24234 38.5454 3.09083C39.0909 4.7878 38.1818 6.60598 36.4848 7.15143C36.2424 7.21204 35.8788 7.27264 35.5757 7.27264ZM35.5757 2.06052C35.3939 2.06052 35.1515 2.12113 34.9697 2.18174C34.4848 2.36355 34.0606 2.72719 33.8181 3.15143C33.5757 3.63628 33.5151 4.18174 33.6969 4.66658C34.0606 5.69689 35.1515 6.30295 36.2424 5.93931C36.7272 5.75749 37.1515 5.45446 37.3939 4.96961C37.6363 4.48477 37.6969 3.93931 37.5151 3.45446C37.3333 2.96961 37.0303 2.54537 36.5454 2.30295C36.1818 2.12113 35.8788 2.06052 35.5757 2.06052Z" fill="#FADCDA" fill-opacity="0.7"/>
<path d="M33.6364 15.8181H32.3031C31.9394 15.8181 31.697 15.5757 31.697 15.212C31.697 14.8484 31.9394 14.606 32.3031 14.606H33.6364C34.0001 14.606 34.2425 14.8484 34.2425 15.212C34.2425 15.5757 34.0001 15.8181 33.6364 15.8181Z" fill="#FADCDA" fill-opacity="0.7"/>
<path d="M36.2424 18.4847C35.4546 18.4847 34.6667 18.1817 34.0606 17.6363C33.4546 17.0302 33.0909 16.2423 33.0303 15.3938C32.9697 14.5453 33.2727 13.6969 33.8788 13.0908C34.4849 12.4847 35.2727 12.1211 36.1212 12.0605C37.8788 11.9999 39.394 13.3938 39.4546 15.1514C39.5152 16.909 38.1212 18.4241 36.3636 18.4847C36.303 18.4847 36.303 18.4847 36.2424 18.4847ZM36.2424 13.2726H36.1818C35.6364 13.2726 35.1515 13.515 34.7879 13.9393C34.4243 14.3635 34.2424 14.8484 34.2424 15.3938C34.2424 15.9393 34.4849 16.4241 34.9091 16.7878C35.3333 17.1514 35.8182 17.3332 36.3636 17.3332C37.4546 17.2726 38.303 16.3635 38.303 15.2726C38.1818 14.1211 37.3333 13.2726 36.2424 13.2726Z" fill="#FADCDA" fill-opacity="0.7"/>
<path d="M8.18185 24.4848C8.12124 24.4848 8.00003 24.4848 7.93942 24.4242C7.63639 24.303 7.51518 23.9394 7.697 23.6364L9.15154 20.7273C9.27276 20.4242 9.63639 20.303 9.93942 20.4848C10.2425 20.6061 10.3637 20.9697 10.1818 21.2727L8.7273 24.1818C8.60609 24.3636 8.42427 24.4848 8.18185 24.4848Z" fill="#FADCDA" fill-opacity="0.7"/>
<path d="M7.03036 29.3939C6.60612 29.3939 6.18188 29.3332 5.75764 29.1514C4.12127 28.4242 3.394 26.5454 4.06067 24.909C4.78794 23.2726 6.66673 22.5454 8.30309 23.212C9.93945 23.9393 10.6667 25.8181 10.0001 27.4545C9.45461 28.6666 8.24248 29.3939 7.03036 29.3939ZM5.21218 25.3939C4.78794 26.4242 5.27279 27.5757 6.24248 27.9999C7.27279 28.4242 8.4243 27.9393 8.84854 26.9696C9.27279 25.9393 8.78794 24.7878 7.81824 24.3635C6.78794 23.9393 5.63642 24.4242 5.21218 25.3939Z" fill="#FADCDA" fill-opacity="0.7"/>
<path d="M8.18182 6.30302C8.12122 6.30302 8.00001 6.30302 7.9394 6.24241L6.48486 5.63635C6.18182 5.51514 6.06061 5.1515 6.18182 4.84847C6.30304 4.54544 6.66667 4.36362 6.9697 4.54544L8.42425 5.1515C8.72728 5.27271 8.9091 5.63635 8.72728 5.93938C8.66667 6.18181 8.42425 6.30302 8.18182 6.30302Z" fill="#FADCDA" fill-opacity="0.7"/>
<path d="M4.30309 7.27266C4.24248 7.27266 4.18188 7.27266 4.12127 7.27266C2.36369 7.15144 0.969754 5.63629 1.09097 3.87872C1.21218 2.12114 2.72733 0.7272 4.48491 0.848413C6.24248 0.969625 7.63642 2.48478 7.51521 4.24235C7.4546 5.93932 6.00006 7.27266 4.30309 7.27266ZM4.30309 2.06053C3.27278 2.06053 2.36369 2.90902 2.30309 3.93932C2.24248 5.03023 3.09097 5.99993 4.18188 6.06053C5.27278 6.12114 6.24248 5.27266 6.30309 4.18175C6.36369 3.09084 5.51521 2.12114 4.4243 2.06053C4.36369 2.06053 4.36369 2.06053 4.30309 2.06053Z" fill="#FADCDA" fill-opacity="0.7"/>
<path d="M7.69697 16.0605L6.42424 15.9999C6.06061 15.9999 5.81818 15.6969 5.87879 15.3938C5.87879 15.0302 6.18182 14.7878 6.48485 14.8484L7.69697 14.909C8.06061 14.909 8.30303 15.212 8.24242 15.5151C8.30303 15.8181 8 16.0605 7.69697 16.0605Z" fill="#FADCDA" fill-opacity="0.7"/>
<path d="M3.8788 18.5455C3.75759 18.5455 3.69699 18.5455 3.57577 18.5455C2.72729 18.4848 1.93941 18.0606 1.39396 17.3939C0.848502 16.7273 0.606078 15.8788 0.666684 15.0303C0.72729 14.1818 1.15153 13.3939 1.8182 12.8485C2.42426 12.3636 3.27274 12.0606 4.12123 12.1212C5.87881 12.303 7.21214 13.8182 7.03032 15.5758C6.90911 17.2727 5.51517 18.5455 3.8788 18.5455ZM3.8788 13.3333C3.39396 13.3333 2.96971 13.5151 2.60608 13.8182C2.18184 14.1818 1.93941 14.6667 1.8788 15.1515C1.8182 15.697 2.00002 16.1818 2.36365 16.6061C2.72729 17.0303 3.21214 17.2727 3.69699 17.3333C4.7879 17.4545 5.75759 16.6061 5.8788 15.5151C5.93941 14.9697 5.75759 14.4848 5.39396 14.0606C5.03032 13.6364 4.54547 13.3939 4.06062 13.3333C4.00002 13.3333 3.93941 13.3333 3.8788 13.3333Z" fill="#FADCDA" fill-opacity="0.7"/>
</g>
<defs>
<clipPath id="clip0_36_2123">
<rect width="40" height="40" fill="white"/>
</clipPath>
</defs>
</svg>
