<svg width="140" height="56" viewBox="0 0 140 56" fill="none" xmlns="http://www.w3.org/2000/svg">
<path d="M49.6143 37.0471H53.7729V29.9181H55.5809L59.9978 37.0471H64.4405L59.5588 29.1949C61.7285 28.5492 63.3557 27.0768 63.3557 24.2872V24.1839C63.3557 20.3611 60.592 18.5789 56.2267 18.5789H49.6143V37.0471ZM53.7729 27.0768V21.7818H56.1234C58.1381 21.7818 59.2746 22.4275 59.2746 24.3131V24.4164C59.2746 26.1987 58.2156 27.0768 56.1234 27.0768H53.7729Z" fill="#A4A4A4"/>
<path d="M71.5795 37.331C75.2732 37.331 77.5978 35.7038 78.0369 32.785H74.4983C74.2658 33.9215 73.4134 34.6706 71.6829 34.6706C69.6423 34.6706 68.4283 33.3791 68.325 31.132H78.0628V30.0988C78.0628 25.2685 74.9632 23.228 71.4762 23.228C67.5501 23.228 64.528 25.9918 64.528 30.2537V30.4603C64.528 34.7739 67.4984 37.331 71.5795 37.331ZM68.3766 28.8331C68.6607 26.9216 69.7973 25.811 71.4762 25.811C73.2585 25.811 74.2917 26.7925 74.4208 28.8331H68.3766Z" fill="#A4A4A4"/>
<path d="M79.8428 37.0474H83.5623V17.4167H79.8428V37.0474Z" fill="#A4A4A4"/>
<path d="M90.6975 37.3321C92.9191 37.3321 94.2876 36.2989 94.985 34.93V37.048H98.7046V23.5391H94.985V31.4688C94.985 33.4578 93.7451 34.4392 92.1701 34.4392C90.5689 34.4392 89.819 33.561 89.819 31.7271V23.5391H86.0999V32.2437C86.0999 35.7824 88.0629 37.3321 90.6975 37.3321Z" fill="#A4A4A4"/>
<path d="M101.244 37.0469H104.99V29.0656C104.99 27.2317 106.152 26.3017 107.598 26.3017C108.916 26.3017 109.716 27.0766 109.716 28.8073V37.0469H113.436V29.0656C113.436 27.2317 114.598 26.3017 116.044 26.3017C117.387 26.3017 118.163 27.0766 118.163 28.8073V37.0469H121.882V28.394C121.882 24.8036 119.945 23.228 117.439 23.228C115.735 23.228 113.978 23.9512 112.893 25.5785C112.248 23.9771 110.905 23.228 109.122 23.228C107.107 23.228 105.661 24.3387 104.99 25.6043V23.538H101.244V37.0469Z" fill="#A4A4A4"/>
<path d="M130.53 37.331C134.225 37.331 136.55 35.7038 136.988 32.785H133.449C133.217 33.9215 132.364 34.6706 130.634 34.6706C128.593 34.6706 127.38 33.3791 127.276 31.132H137.014V30.0988C137.014 25.2685 133.914 23.228 130.427 23.228C126.501 23.228 123.479 25.9918 123.479 30.2537V30.4603C123.479 34.7739 126.449 37.331 130.53 37.331ZM127.328 28.8331C127.612 26.9216 128.749 25.811 130.427 25.811C132.21 25.811 133.243 26.7925 133.372 28.8331H127.328Z" fill="#A4A4A4"/>
<path fill-rule="evenodd" clip-rule="evenodd" d="M35.3019 19.684L35.0508 19.2355C34.7269 18.6932 34.2701 18.2425 33.7235 17.9261L21.6875 10.9843C21.1424 10.6682 20.5238 10.5011 19.8937 10.5H19.3735C18.7435 10.5011 18.1248 10.6682 17.5798 10.9843L5.54388 17.944C5.00033 18.2583 4.54882 18.7099 4.23446 19.2535L3.98333 19.7019C3.66718 20.2468 3.50014 20.8656 3.49902 21.4955V35.397C3.50014 36.0271 3.66718 36.6457 3.98333 37.1908L4.23446 37.6392C4.55695 38.1765 5.00663 38.6261 5.54388 38.9487L17.5977 45.8903C18.1401 46.213 18.7605 46.3806 19.3915 46.3747H19.8937C20.5238 46.3735 21.1424 46.2065 21.6875 45.8903L33.7235 38.9307C34.2724 38.6234 34.7256 38.1703 35.0328 37.6213L35.3019 37.1728C35.6143 36.6262 35.781 36.0086 35.7862 35.3791V21.4776C35.7851 20.8476 35.6181 20.2289 35.3019 19.684ZM19.3735 14.0874H19.8937L30.4051 20.1502L19.6426 26.3565L8.88025 20.1502L19.3735 14.0874ZM21.4363 41.8905L31.9296 35.8276L32.1987 35.3792V23.2536L21.4363 29.4778V41.8905Z" fill="#A4A4A4"/>
</svg>
