<svg width="116" height="20" viewBox="0 0 116 20" fill="none" xmlns="http://www.w3.org/2000/svg">
<g clip-path="url(#clip0_36_1969)">
<path d="M9.071 1.39018C9.41474 0.573717 10.5855 0.573718 10.9292 1.39018L12.958 6.20907C13.103 6.55327 13.4307 6.78844 13.8068 6.81823L19.0728 7.23531C19.965 7.30598 20.3268 8.40597 19.647 8.98123L15.6349 12.3765C15.3483 12.6191 15.2231 12.9996 15.3107 13.3622L16.5365 18.4388C16.7441 19.2989 15.797 19.9788 15.0331 19.5179L10.5247 16.7974C10.2026 16.6031 9.79762 16.6031 9.4756 16.7974L4.96711 19.5179C4.20323 19.9788 3.25608 19.2989 3.46376 18.4388L4.68954 13.3622C4.7771 12.9996 4.65194 12.6191 4.36538 12.3765L0.353184 8.98123C-0.326596 8.40597 0.0351899 7.30598 0.927413 7.23531L6.19348 6.81823C6.56962 6.78844 6.89728 6.55327 7.04219 6.20907L9.071 1.39018Z" fill="url(#paint0_linear_36_1969)"/>
<path d="M33.0709 1.39018C33.4147 0.573717 34.5854 0.573718 34.9292 1.39018L36.9579 6.20907C37.1029 6.55327 37.4306 6.78844 37.8067 6.81823L43.0727 7.23531C43.9649 7.30598 44.3267 8.40597 43.6469 8.98123L39.6348 12.3765C39.3483 12.6191 39.2231 12.9996 39.3106 13.3622L40.5364 18.4388C40.7441 19.2989 39.7969 19.9788 39.0331 19.5179L34.5246 16.7974C34.2026 16.6031 33.7976 16.6031 33.4755 16.7974L28.967 19.5179C28.2032 19.9788 27.256 19.2989 27.4637 18.4388L28.6895 13.3622C28.777 12.9996 28.6519 12.6191 28.3653 12.3765L24.3531 8.98123C23.6733 8.40597 24.0351 7.30598 24.9274 7.23531L30.1934 6.81823C30.5696 6.78844 30.8972 6.55327 31.0421 6.20907L33.0709 1.39018Z" fill="url(#paint1_linear_36_1969)"/>
<path d="M57.0709 1.39018C57.4146 0.573717 58.5854 0.573718 58.9291 1.39018L60.9579 6.20907C61.1029 6.55327 61.4306 6.78844 61.8067 6.81823L67.0727 7.23531C67.9649 7.30598 68.3267 8.40597 67.6469 8.98123L63.6348 12.3765C63.3482 12.6191 63.223 12.9996 63.3106 13.3622L64.5363 18.4388C64.744 19.2989 63.7969 19.9788 63.033 19.5179L58.5245 16.7974C58.2025 16.6031 57.7975 16.6031 57.4755 16.7974L52.967 19.5179C52.2031 19.9788 51.256 19.2989 51.4636 18.4388L52.6894 13.3622C52.777 12.9996 52.6518 12.6191 52.3653 12.3765L48.3531 8.98123C47.6733 8.40597 48.0351 7.30598 48.9273 7.23531L54.1934 6.81823C54.5695 6.78844 54.8972 6.55327 55.0421 6.20907L57.0709 1.39018Z" fill="url(#paint2_linear_36_1969)"/>
<path d="M81.0709 1.39018C81.4146 0.573717 82.5854 0.573718 82.9291 1.39018L84.9579 6.20907C85.1029 6.55327 85.4306 6.78844 85.8067 6.81823L91.0727 7.23531C91.9649 7.30598 92.3267 8.40597 91.6469 8.98123L87.6348 12.3765C87.3482 12.6191 87.223 12.9996 87.3106 13.3622L88.5363 18.4388C88.744 19.2989 87.7969 19.9788 87.033 19.5179L82.5245 16.7974C82.2025 16.6031 81.7975 16.6031 81.4755 16.7974L76.967 19.5179C76.2031 19.9788 75.256 19.2989 75.4636 18.4388L76.6894 13.3622C76.777 12.9996 76.6518 12.6191 76.3653 12.3765L72.3531 8.98123C71.6733 8.40597 72.0351 7.30598 72.9273 7.23531L78.1934 6.81823C78.5695 6.78844 78.8972 6.55327 79.0421 6.20907L81.0709 1.39018Z" fill="url(#paint3_linear_36_1969)"/>
<path d="M105.071 1.39018C105.415 0.573717 106.585 0.573718 106.929 1.39018L108.958 6.20907C109.103 6.55327 109.43 6.78844 109.807 6.81823L115.073 7.23531C115.965 7.30598 116.327 8.40597 115.647 8.98123L111.635 12.3765C111.348 12.6191 111.223 12.9996 111.31 13.3622L112.536 18.4388C112.744 19.2989 111.797 19.9788 111.033 19.5179L106.524 16.7974C106.202 16.6031 105.797 16.6031 105.475 16.7974L100.967 19.5179C100.203 19.9788 99.2559 19.2989 99.4636 18.4388L100.689 13.3622C100.777 12.9996 100.652 12.6191 100.365 12.3765L96.353 8.98123C95.6732 8.40597 96.035 7.30598 96.9272 7.23531L102.193 6.81823C102.569 6.78844 102.897 6.55327 103.042 6.20907L105.071 1.39018Z" fill="url(#paint4_linear_36_1969)"/>
</g>
<defs>
<linearGradient id="paint0_linear_36_1969" x1="0.15516" y1="18.9402" x2="23.3988" y2="16.841" gradientUnits="userSpaceOnUse">
<stop stop-color="#CC3044"/>
<stop offset="1" stop-color="#D77820"/>
</linearGradient>
<linearGradient id="paint1_linear_36_1969" x1="24.1551" y1="18.9402" x2="47.3987" y2="16.841" gradientUnits="userSpaceOnUse">
<stop stop-color="#CC3044"/>
<stop offset="1" stop-color="#D77820"/>
</linearGradient>
<linearGradient id="paint2_linear_36_1969" x1="48.155" y1="18.9402" x2="71.3987" y2="16.841" gradientUnits="userSpaceOnUse">
<stop stop-color="#CC3044"/>
<stop offset="1" stop-color="#D77820"/>
</linearGradient>
<linearGradient id="paint3_linear_36_1969" x1="72.155" y1="18.9402" x2="95.3987" y2="16.841" gradientUnits="userSpaceOnUse">
<stop stop-color="#CC3044"/>
<stop offset="1" stop-color="#D77820"/>
</linearGradient>
<linearGradient id="paint4_linear_36_1969" x1="96.155" y1="18.9402" x2="119.399" y2="16.841" gradientUnits="userSpaceOnUse">
<stop stop-color="#CC3044"/>
<stop offset="1" stop-color="#D77820"/>
</linearGradient>
<clipPath id="clip0_36_1969">
<rect width="116" height="18.8889" fill="white" transform="translate(0.00012207 0.777832)"/>
</clipPath>
</defs>
</svg>
