<svg width="40" height="40" viewBox="0 0 40 40" fill="none" xmlns="http://www.w3.org/2000/svg">
<g clip-path="url(#clip0_36_2202)">
<path d="M39.9219 20C39.9219 23.9478 38.75 27.7869 36.5332 31.1026C36.232 31.5534 35.737 31.7969 35.2329 31.7969C34.9344 31.7969 34.6326 31.7117 34.3659 31.5332C33.6484 31.0538 33.4558 30.0833 33.9353 29.3659C35.8075 26.5659 36.7969 23.3273 36.7969 20C36.7969 18.5703 36.6181 17.1503 36.2653 15.78C36.0501 14.9445 36.5534 14.0924 37.3889 13.8773C38.2251 13.6624 39.0766 14.1653 39.2917 15.0009C39.7098 16.6257 39.9219 18.3075 39.9219 20ZM28.6511 34.4449C26.0266 36.0346 23.0081 36.875 19.9219 36.875C10.6171 36.875 3.04688 29.3048 3.04688 20C3.04688 10.6952 10.6171 3.125 19.9219 3.125C23.367 3.125 26.6797 4.15589 29.5023 6.10626C30.2121 6.59668 31.1853 6.41876 31.676 5.70893C32.1665 4.99909 31.9888 4.02588 31.2787 3.53516C27.9315 1.22253 24.0045 0 19.9219 0C14.5798 0 9.55719 2.08038 5.77973 5.85785C2.00226 9.63532 -0.078125 14.6579 -0.078125 20C-0.078125 25.3421 2.00226 30.3647 5.77973 34.1422C9.55719 37.9196 14.5798 40 19.9219 40C23.5791 40 27.1576 39.0033 30.2704 37.1176C31.0086 36.6705 31.2445 35.7099 30.7974 34.9716C30.35 34.2334 29.3894 33.9978 28.6511 34.4449ZM20.0726 24.5306C19.8251 24.5404 19.5941 24.4525 19.4147 24.2816L11.2314 16.5225C10.6052 15.9287 9.61609 15.9549 9.02253 16.5811C8.42865 17.2073 8.4549 18.1964 9.08112 18.79L17.2629 26.5479C18.0185 27.2662 18.996 27.6563 20.0317 27.6563C20.0873 27.6563 20.1428 27.655 20.1984 27.6529C21.2955 27.6087 22.3032 27.1338 23.0356 26.3156C23.0542 26.2952 23.0719 26.2741 23.0893 26.2525L39.577 5.74463C40.1178 5.07202 40.011 4.08844 39.3384 3.54798C38.6661 3.0072 37.6822 3.11401 37.1414 3.78662L20.686 24.2545C20.5243 24.4232 20.3076 24.5212 20.0726 24.5306Z" fill="#FADCDA" fill-opacity="0.7"/>
</g>
<defs>
<clipPath id="clip0_36_2202">
<rect width="40" height="40" fill="white"/>
</clipPath>
</defs>
</svg>
