<svg width="64" height="64" viewBox="0 0 64 64" fill="none" xmlns="http://www.w3.org/2000/svg">
<path d="M17.07 19.9999C17.204 19.9997 17.3366 19.9725 17.46 19.9199L18.36 19.5499C18.5956 19.4455 18.7818 19.2541 18.8797 19.0157C18.9776 18.7773 18.9797 18.5103 18.8855 18.2704C18.7914 18.0305 18.6082 17.8362 18.3743 17.7281C18.1404 17.6199 17.8737 17.6062 17.63 17.6899L16.63 18.0799C16.4133 18.1714 16.2358 18.3363 16.1286 18.5456C16.0215 18.755 15.9915 18.9954 16.0441 19.2246C16.0966 19.4538 16.2282 19.6572 16.4159 19.799C16.6035 19.9408 16.8351 20.012 17.07 19.9999Z" fill="#FD6B10"/>
<path d="M8.32992 25.1899C8.54856 25.195 8.76284 25.1283 8.93992 24.9999C9.37326 24.6599 9.81326 24.3266 10.2599 23.9999C10.3676 23.9238 10.4592 23.8271 10.5296 23.7156C10.5999 23.604 10.6476 23.4796 10.6699 23.3496C10.6922 23.2196 10.6886 23.0865 10.6595 22.9579C10.6303 22.8292 10.5761 22.7076 10.4999 22.5999C10.4238 22.4922 10.3271 22.4006 10.2155 22.3303C10.104 22.2599 9.97963 22.2123 9.84963 22.19C9.71963 22.1677 9.58651 22.1712 9.45787 22.2004C9.32924 22.2296 9.20761 22.2838 9.09992 22.3599C8.62659 22.6999 8.16326 23.0333 7.70992 23.3599C7.54475 23.4881 7.42391 23.6648 7.36438 23.8652C7.30486 24.0657 7.30965 24.2797 7.37807 24.4772C7.4465 24.6748 7.57513 24.8459 7.74586 24.9666C7.9166 25.0873 8.12086 25.1514 8.32992 25.1499V25.1899Z" fill="#FD6B10"/>
<path d="M12.53 22.3101C12.7095 22.31 12.8856 22.2616 13.04 22.1701C13.5133 21.8901 13.9933 21.6201 14.48 21.3601C14.6051 21.3039 14.7172 21.2226 14.8096 21.1213C14.9019 21.02 14.9725 20.9007 15.0168 20.771C15.0611 20.6413 15.0782 20.5038 15.0672 20.3671C15.0561 20.2305 15.0171 20.0976 14.9525 19.9766C14.8879 19.8557 14.7992 19.7494 14.6917 19.6642C14.5843 19.579 14.4605 19.5168 14.3281 19.4815C14.1956 19.4462 14.0573 19.4385 13.9217 19.4589C13.7861 19.4793 13.6562 19.5273 13.54 19.6001C13.0266 19.8734 12.52 20.1567 12.02 20.4501C11.8316 20.5619 11.6851 20.7324 11.603 20.9356C11.521 21.1387 11.5079 21.3632 11.5659 21.5745C11.6238 21.7858 11.7495 21.9722 11.9237 22.1051C12.0979 22.238 12.3109 22.31 12.53 22.3101Z" fill="#FD6B10"/>
<path d="M4.99996 28.11C5.2623 28.1089 5.5137 28.0048 5.69996 27.82L6.39996 27.15C6.49582 27.0601 6.57303 26.9521 6.62717 26.8323C6.68132 26.7125 6.71133 26.5832 6.71551 26.4518C6.71969 26.3204 6.69795 26.1895 6.65153 26.0665C6.6051 25.9435 6.53491 25.8309 6.44496 25.735C6.355 25.6391 6.24704 25.5619 6.12725 25.5078C6.00746 25.4536 5.87817 25.4236 5.74678 25.4195C5.61538 25.4153 5.48445 25.437 5.36146 25.4834C5.23847 25.5299 5.12582 25.6001 5.02996 25.69L4.28996 26.4C4.14893 26.5399 4.05275 26.7186 4.01368 26.9133C3.97461 27.1081 3.99442 27.31 4.07059 27.4935C4.14675 27.6769 4.27582 27.8335 4.44134 27.9433C4.60686 28.0531 4.80133 28.1112 4.99996 28.11Z" fill="#FD6B10"/>
<path d="M58.27 27.82C58.3632 27.9126 58.4738 27.9859 58.5953 28.0358C58.7169 28.0856 58.8471 28.111 58.9785 28.1106C59.1099 28.1101 59.2399 28.0838 59.3611 28.033C59.4823 27.9823 59.5924 27.9082 59.685 27.815C59.7776 27.7218 59.8509 27.6112 59.9007 27.4896C59.9506 27.3681 59.976 27.2379 59.9755 27.1065C59.9751 26.9751 59.9487 26.8451 59.898 26.7238C59.8473 26.6026 59.7732 26.4926 59.68 26.4L58.94 25.69C58.7464 25.5083 58.4885 25.411 58.2231 25.4195C57.9578 25.4279 57.7066 25.5414 57.525 25.735C57.3433 25.9286 57.246 26.1865 57.2544 26.4518C57.2629 26.7172 57.3764 26.9683 57.57 27.15L58.27 27.82Z" fill="#FD6B10"/>
<path d="M55.0599 24.9998C55.2681 25.1643 55.5331 25.2392 55.7966 25.2083C56.0601 25.1774 56.3005 25.043 56.4649 24.8348C56.6294 24.6266 56.7044 24.3616 56.6734 24.0981C56.6425 23.8347 56.5081 23.5943 56.2999 23.4298C55.8466 23.0698 55.3833 22.7365 54.9099 22.4298C54.8114 22.3186 54.6893 22.2307 54.5525 22.1726C54.4157 22.1145 54.2677 22.0876 54.1192 22.0939C53.9707 22.1002 53.8255 22.1395 53.6941 22.209C53.5627 22.2784 53.4485 22.3763 53.3597 22.4955C53.2709 22.6146 53.2097 22.7521 53.1807 22.8979C53.1517 23.0436 53.1556 23.194 53.192 23.3381C53.2284 23.4822 53.2965 23.6163 53.3913 23.7308C53.4861 23.8453 53.6052 23.9372 53.7399 23.9998C54.1866 24.3132 54.6266 24.6465 55.0599 24.9998Z" fill="#FD6B10"/>
<path d="M49.5299 21.3698C50.0166 21.6298 50.4966 21.8998 50.9699 22.1798C51.1955 22.2818 51.4509 22.2964 51.6867 22.2209C51.9224 22.1455 52.1218 21.9852 52.2463 21.7712C52.3707 21.5572 52.4113 21.3046 52.3603 21.0624C52.3092 20.8201 52.1701 20.6054 51.9699 20.4598C51.4699 20.1665 50.9632 19.8832 50.4499 19.6098C50.3337 19.5371 50.2038 19.489 50.0682 19.4686C49.9326 19.4483 49.7943 19.456 49.6618 19.4913C49.5294 19.5266 49.4056 19.5888 49.2981 19.6739C49.1907 19.7591 49.1019 19.8655 49.0374 19.9864C48.9728 20.1073 48.9337 20.2403 48.9227 20.3769C48.9116 20.5136 48.9288 20.651 48.9731 20.7808C49.0174 20.9105 49.088 21.0297 49.1803 21.1311C49.2726 21.2324 49.3848 21.3137 49.5099 21.3698H49.5299Z" fill="#FD6B10"/>
<path d="M45.63 19.5699L46.53 19.9399C46.6518 19.9972 46.7838 20.0293 46.9183 20.0344C47.0528 20.0394 47.1869 20.0172 47.3127 19.9692C47.4384 19.9211 47.5531 19.8482 47.6499 19.7547C47.7468 19.6613 47.8238 19.5493 47.8763 19.4254C47.9288 19.3014 47.9558 19.1682 47.9556 19.0336C47.9554 18.899 47.9281 18.7659 47.8752 18.6421C47.8223 18.5184 47.745 18.4066 47.6479 18.3134C47.5508 18.2202 47.4358 18.1476 47.31 18.0999L46.36 17.7099C46.1162 17.6263 45.8496 17.6399 45.6156 17.7481C45.3817 17.8562 45.1986 18.0505 45.1044 18.2904C45.0103 18.5303 45.0123 18.7973 45.1103 19.0357C45.2082 19.2741 45.3944 19.4655 45.63 19.5699Z" fill="#FD6B10"/>
<path d="M31.9999 31.9998C26.3517 31.9966 20.7736 33.2502 15.6699 35.6698C15.0699 35.9498 14.4799 36.2598 13.8999 36.5698H13.8399L13.5799 36.7198C13.0399 37.0198 12.5066 37.3298 11.9799 37.6498L11.8699 37.7198L11.9599 37.6698C10.8899 38.3298 9.86992 39.0398 8.87992 39.7898L8.14992 40.3498C7.83992 40.5998 7.53992 40.8598 7.22992 41.1098C6.91992 41.3598 6.63992 41.6098 6.34992 41.8698L5.83992 42.3398L5.89992 42.2798C5.61992 42.5498 5.32992 42.8098 5.04992 43.0798H4.99992C4.67583 43.4136 4.4207 43.8079 4.24911 44.2403C4.07753 44.6727 3.99285 45.1347 3.99992 45.5998V49.7198C4.09523 49.5471 4.20566 49.3831 4.32992 49.2298C7.29657 45.7181 10.87 42.7679 14.8799 40.5198C15.9433 39.9423 17.1661 39.7275 18.3626 39.908C19.5592 40.0884 20.6642 40.6544 21.5099 41.5198C22.9748 42.9837 24.1368 44.7218 24.9296 46.635C25.7223 48.5482 26.1302 50.5989 26.1299 52.6698V53.2798C26.1211 53.6345 26.1838 53.9873 26.3144 54.3172C26.445 54.6471 26.6407 54.9473 26.8899 55.1998C27.2534 55.5364 27.5188 55.9652 27.6579 56.4407C27.797 56.9161 27.8046 57.4204 27.6799 57.8998C27.631 58.1574 27.64 58.4226 27.7061 58.6764C27.7722 58.9301 27.8939 59.1659 28.0623 59.3669C28.2307 59.5678 28.4417 59.7288 28.6799 59.8383C28.9182 59.9478 29.1777 60.0029 29.4399 59.9998H44.6499C44.9008 60.0038 45.1495 59.9521 45.378 59.8486C45.6066 59.7451 45.8094 59.5922 45.9719 59.401C46.1344 59.2098 46.2526 58.985 46.318 58.7428C46.3833 58.5005 46.3942 58.2468 46.3499 57.9998C46.2828 57.691 46.2493 57.3758 46.2499 57.0598V56.3798C46.2482 55.179 45.7698 54.028 44.9199 53.1798L43.4699 51.7298C43.0396 51.2761 42.5239 50.9118 41.9525 50.6578C41.381 50.4038 40.7651 50.2652 40.1399 50.2498C39.5403 50.2529 38.946 50.137 38.3916 49.9087C37.8371 49.6804 37.3335 49.3442 36.9099 48.9198L33.3099 45.3198C32.4698 44.4708 31.9989 43.3243 31.9999 42.1298C31.9968 41.2947 32.1815 40.4695 32.5404 39.7155C32.8993 38.9614 33.4231 38.2976 34.0732 37.7733C34.7232 37.2491 35.4829 36.8777 36.2959 36.6867C37.1089 36.4956 37.9544 36.4899 38.7699 36.6698H38.9299C44.6306 37.8362 49.9365 40.4461 54.3399 44.2498C56.4237 45.9619 58.3209 47.8893 59.9999 49.9998V45.6398C60.0147 44.6974 59.655 43.7875 58.9999 43.1098C51.826 35.9775 42.116 31.982 31.9999 31.9998Z" fill="#FD6B10"/>
<path d="M21.8899 21.9399C21.9817 21.9399 22.0721 21.9182 22.1538 21.8765C22.2355 21.8348 22.3062 21.7743 22.3599 21.6999L24.1599 19.1899C24.2392 19.0793 24.3526 18.9979 24.4827 18.9581C24.6128 18.9184 24.7524 18.9225 24.8799 18.9699L25.2699 19.1099C26.7869 19.665 28.385 19.9657 29.9999 19.9999C30.0113 19.9998 30.0226 20.0022 30.0331 20.0068C30.0435 20.0115 30.0528 20.0183 30.0604 20.0268C30.0679 20.0353 30.0736 20.0453 30.077 20.0562C30.0804 20.0671 30.0814 20.0786 30.0799 20.0899L29.1699 29.2099C29.1552 29.3436 29.1882 29.4782 29.2631 29.5898C29.338 29.7015 29.45 29.7831 29.5793 29.8202C29.7085 29.8573 29.8467 29.8475 29.9695 29.7926C30.0922 29.7376 30.1915 29.6411 30.2499 29.5199L34.9999 19.9999H39.1999C40.2581 20.0008 41.2961 19.7102 42.1999 19.1599C42.3947 19.0437 42.5559 18.879 42.6679 18.6818C42.7799 18.4846 42.8388 18.2617 42.8388 18.0349C42.8388 17.8082 42.7799 17.5853 42.6679 17.3881C42.5559 17.1909 42.3947 17.0261 42.1999 16.9099C41.2961 16.3597 40.2581 16.069 39.1999 16.0699H34.9999L30.2199 6.50993C30.1615 6.3888 30.0622 6.29222 29.9395 6.23727C29.8167 6.18232 29.6785 6.17252 29.5493 6.20962C29.42 6.24672 29.308 6.32833 29.2331 6.44001C29.1582 6.5517 29.1252 6.68627 29.1399 6.81993L30.0499 15.9399C30.0474 15.9534 30.0415 15.9659 30.0328 15.9764C30.024 15.987 30.0127 15.995 29.9999 15.9999C28.3968 16.0278 26.8091 16.3183 25.2999 16.8599L24.9099 16.9999C24.7824 17.0473 24.6428 17.0515 24.5127 17.0117C24.3826 16.972 24.2692 16.8905 24.1899 16.7799L22.3899 14.2699C22.3067 14.181 22.1976 14.1205 22.0781 14.0971C21.9586 14.0736 21.8347 14.0884 21.724 14.1393C21.6134 14.1902 21.5216 14.2746 21.4616 14.3806C21.4016 14.4867 21.3766 14.6089 21.3899 14.7299L21.9899 17.9699L21.3899 21.2099C21.3677 21.2911 21.3635 21.3762 21.3774 21.4593C21.3914 21.5423 21.4233 21.6213 21.4709 21.6907C21.5184 21.7602 21.5806 21.8185 21.6529 21.8615C21.7253 21.9045 21.8062 21.9313 21.8899 21.9399Z" fill="#FD6B10"/>
</svg>
