<svg width="140" height="56" viewBox="0 0 140 56" fill="none" xmlns="http://www.w3.org/2000/svg">
<path d="M46.4373 24.4463C46.4373 22.0579 44.1214 19.5242 40.1061 19.5242C35.5955 19.5242 30.6479 22.8265 29.8821 29.4252C29.1092 36.0965 33.2626 39.0443 37.4359 39.0443C41.6078 39.0443 43.8041 37.4188 46.0344 35.2397C44.1086 32.8142 41.6249 33.9429 41.1552 34.1793C40.6356 34.4397 39.9538 34.7998 38.5689 34.7998C36.952 34.7998 35.3122 34.0682 35.3122 31.0663C45.6487 30.0756 46.4373 26.8361 46.4373 24.4463ZM41.3146 24.8462C41.2477 25.5821 40.9459 26.856 35.7151 27.5563C36.8182 23.6392 38.9219 23.3488 39.894 23.3488C40.805 23.3488 41.3857 24.0548 41.3146 24.8462ZM23.8072 25.4824C23.8072 25.4824 21.5839 32.4541 21.4116 33.0392C21.3518 32.4541 19.725 19.9314 19.725 19.9314C15.9388 19.9314 13.9133 22.6215 12.8458 25.4796C12.8458 25.4796 10.1414 32.4712 9.92221 33.0562C9.90943 32.5082 9.50658 25.5523 9.50658 25.5523C9.27742 22.0564 6.08626 19.9399 3.5 19.9399L6.61006 38.912C10.5827 38.8991 12.7092 36.2132 13.8308 33.3608C13.8308 33.3608 16.2092 27.1919 16.3075 26.9116C16.3316 27.1791 18.0184 38.912 18.0184 38.912C21.9938 38.912 24.1388 36.3969 25.2932 33.6469L30.8714 19.9399C26.9429 19.9399 24.8747 22.6229 23.8072 25.4824ZM61.0381 19.4986C58.5943 19.4986 56.7111 20.8267 55.1255 22.7895L55.1283 22.7752L56.5375 11.3755C53.2837 11.3755 50.6248 14.208 50.1195 18.4098L47.6443 38.7639C49.5217 38.7639 51.5101 38.2188 52.5833 36.8395C53.5442 38.0735 54.9718 39.0571 57.0854 39.0571C62.5725 39.0571 66.3445 32.679 66.3445 26.6909C66.3445 21.2266 63.6856 19.4986 61.0381 19.4986ZM60.5343 29.2772C59.965 32.6249 58.1046 34.8823 56.3026 34.8823C54.4864 34.8823 53.7192 34.0796 53.7192 34.0796C54.058 31.1532 54.2828 29.3583 54.9448 27.8125C55.6052 26.2668 57.1666 23.8001 58.8006 23.8001C60.3891 23.8001 61.1037 25.9309 60.5343 29.2772ZM80.0999 19.9413H76.2583L76.2767 19.7406C76.5386 17.2326 77.1393 15.916 79.0836 15.7139C80.4116 15.5773 81.0123 14.8869 81.1518 14.1411C81.2614 13.5561 81.6328 11.4879 81.6328 11.4879C73.9267 11.4438 71.5113 14.7702 70.895 19.826L70.8807 19.9399L70.8053 19.9427C69.5541 19.9427 68.1806 21.359 67.94 23.1581L67.8561 23.8199H70.4182L68.2674 41.6249L67.6156 44.8246L67.8803 44.8331C71.4771 44.6965 73.7916 41.8597 74.3026 37.7291L75.9821 23.8199H77.1863C78.3648 23.8199 79.7497 22.6386 80.006 20.6644L80.0999 19.9413ZM100.036 19.6111C95.6091 19.6111 91.4371 22.8692 90.1543 27.9947C88.8733 33.1189 90.8211 39.1696 97.3267 39.1696C103.835 39.1696 107.574 32.8626 107.574 27.6261C107.574 22.3866 104.033 19.6111 100.036 19.6111ZM101.83 29.1249C101.601 31.4492 100.576 34.9606 97.7755 34.9606C94.9624 34.9606 95.3623 30.84 95.6344 28.8843C95.9267 26.7877 97.1044 23.8199 99.6113 23.8199C101.876 23.8199 102.089 26.5001 101.83 29.1249ZM129.434 25.4824C129.434 25.4824 127.21 32.4541 127.04 33.0392C126.979 32.4541 125.352 19.9314 125.352 19.9314C121.566 19.9314 119.541 22.6215 118.473 25.4796C118.473 25.4796 115.77 32.4712 115.55 33.0562C115.537 32.5082 115.135 25.5523 115.135 25.5523C114.905 22.0564 111.712 19.9399 109.128 19.9399L112.237 38.912C116.209 38.8991 118.337 36.2132 119.459 33.3608C119.459 33.3608 121.837 27.1919 121.935 26.9116C121.96 27.1791 123.645 38.912 123.645 38.912C127.621 38.912 129.765 36.3969 130.92 33.6469L136.499 19.9399C132.57 19.9399 130.501 22.6229 129.434 25.4824ZM83.7152 11.4879L80.4899 37.5014L80.4813 37.4971L79.8266 40.7139L80.09 40.7224C83.5629 40.6797 86.0268 37.6324 86.4908 33.7892L88.3536 18.8581C88.9188 14.3105 86.2076 11.4879 83.7152 11.4879Z" fill="#A4A4A4"/>
</svg>
